<?xml version="1.0" encoding="UTF-8"?>
<svg version="1.1" xmlns="http://www.w3.org/2000/svg" width="1024" height="1024">
<path d="M0 0 C337.92 0 675.84 0 1024 0 C1024 337.92 1024 675.84 1024 1024 C686.08 1024 348.16 1024 0 1024 C0 686.08 0 348.16 0 0 Z " fill="#FEFEFE" transform="translate(0,0)"/>
<path d="M0 0 C11.33735217 13.70788944 16.72937378 36.53586624 15.23925781 53.984375 C12.73308705 75.09758503 0.1049889 91.94414841 -16 105 C-18.40693842 107.00783799 -20.79744053 109.03462694 -23.1875 111.0625 C-23.78224121 111.55766113 -24.37698242 112.05282227 -24.98974609 112.56298828 C-35.09770829 121.11151732 -41.30067824 131.75700975 -43 145 C-46.81443478 143.72852174 -47.79325021 142.02754257 -50.25 138.875 C-53.4188337 134.90113896 -56.63976208 131.22799888 -60.29296875 127.703125 C-63.37377885 124.62936481 -66.16668001 121.30005952 -69 118 C-67.15417732 124.64618002 -64.93529322 130.91846994 -62.0625 137.1875 C-61.67771484 138.0319165 -61.29292969 138.87633301 -60.89648438 139.74633789 C-53.79977603 155.10432106 -46.43588807 170.60039157 -36 184 C-35.57895996 184.54301758 -35.15791992 185.08603516 -34.72412109 185.64550781 C-28.57974471 193.48356954 -22.07668019 200.09333218 -14 206 C-13.46455566 206.4031543 -12.92911133 206.80630859 -12.37744141 207.22167969 C-2.0703723 214.91723028 8.86264902 219.84112171 21 224 C22.10730469 224.38285156 23.21460938 224.76570312 24.35546875 225.16015625 C40.58827474 229.77053047 58.07098911 227.55899277 74 223 C75.6625838 222.64686545 77.32779399 222.30432868 79 222 C72.17293208 233.86411194 62.13862559 242.01148866 49 246 C48.01 246 47.02 246 46 246 C46 246.66 46 247.32 46 248 C46.66 248.23074219 47.32 248.46148438 48 248.69921875 C51.13798453 250.05982923 53.91264077 251.69281135 56.82128906 253.47900391 C72.79299044 263.2546015 86.81320104 267.77906978 105.62890625 264.3359375 C125.97793278 258.23388261 137.23581755 241.62374659 147 224 C149.11709427 220.05601114 151.11346714 216.05962766 153 212 C152.57291748 212.44279297 152.14583496 212.88558594 151.70581055 213.34179688 C136.75927602 228.76374795 119.80578838 244.8421461 97.06640625 246.2421875 C93.69993234 246.24896791 90.36112555 246.18141007 87 246 C87.35336426 245.57114502 87.70672852 245.14229004 88.07080078 244.70043945 C93.63860807 237.64685617 97.50717165 229.77683024 101.61328125 221.81835938 C107.02616701 211.51699883 113.23304083 202.17246283 121.5625 194 C122.15691895 193.41387939 122.75133789 192.82775879 123.36376953 192.22387695 C138.27145942 177.86406319 156.25267253 168.37703857 175 160 C149.74656117 161.07006097 131.74605987 172.56282772 112.14990234 187.40087891 C88.77351333 205.03038007 63.08382331 215.57297172 33.34619141 211.64990234 C8.4254083 207.1264249 -9.9557901 191.73415543 -27 174 C-22.91115762 172.63705254 -20.42145006 174.18895529 -16.625 175.75 C-2.77573842 181.19083738 10.62895853 183.17772539 25.4375 183.1875 C26.41009766 183.19974609 27.38269531 183.21199219 28.38476562 183.22460938 C34.82133923 183.23750832 40.74429897 182.51354521 47 181 C47.69946894 170.67635651 47.84256893 162.44649813 41 154 C37.56640701 150.39429709 33.84881066 147.15712049 30 144 C30.33 143.34 30.66 142.68 31 142 C51.95959216 135.66270307 71.09324209 140.02208716 91.2109375 147.13085938 C111.99115902 154.36413331 130.07760759 153.00597404 150 144 C155.17450051 141.469231 160.24044705 138.72843503 165.3125 136 C166.73218607 135.24115565 168.15194619 134.48244982 169.57177734 133.72387695 C179.67682713 128.31104269 189.67778624 122.72698196 199.6328125 117.04296875 C205.95855167 113.4382869 212.35794204 109.9731305 218.75927734 106.50512695 C224.20761564 103.54545833 229.61548404 100.52531107 234.99804688 97.44775391 C245.73132966 91.31363328 256.58210512 85.42194615 267.5 79.625 C268.21039429 79.24631775 268.92078857 78.8676355 269.65270996 78.47747803 C273.76719793 76.28657096 277.89424109 74.12317612 282.04443359 72.00061035 C283.3113869 71.35234467 284.57619037 70.69985302 285.83837891 70.0423584 C304.37264008 60.45554087 324.113145 56.96265307 344.625 54.25 C346.72934895 53.95834348 348.83351686 53.66537764 350.9375 53.37109375 C361.15128632 51.95857215 371.36622845 50.70964727 381.62626648 49.68746948 C386.8780589 49.15312092 392.0508792 48.38484337 397.24951172 47.45996094 C402.16159064 46.63851973 407.11196326 46.15424449 412.0625 45.625 C420.21302142 44.73446805 428.30131445 43.67127301 436.39501953 42.3605957 C458.65819664 38.79002615 479.29444102 36.89884547 498.71484375 50.28515625 C501.57576399 52.43206904 504.33025437 54.61887552 507 57 C506 60 506 60 503.39331055 61.51123047 C502.23613525 62.04119629 501.07895996 62.57116211 499.88671875 63.1171875 C499.25459976 63.4102478 498.62248077 63.70330811 497.97120667 64.00524902 C495.88097465 64.97157437 493.78434839 65.92312797 491.6875 66.875 C490.21990847 67.55057685 488.75279111 68.22718466 487.28613281 68.90478516 C484.29067642 70.28693482 481.29277399 71.66353877 478.29248047 73.03515625 C472.26692184 75.79057675 466.25875073 78.58313571 460.25 81.375 C459.13979492 81.88949707 458.02958984 82.40399414 456.88574219 82.93408203 C445.48512876 88.22251222 434.11759457 93.58100159 422.76245117 98.96630859 C421.25572563 99.68072525 419.74897165 100.39508195 418.2421875 101.109375 C417.51753799 101.45292023 416.79288849 101.79646545 416.04627991 102.15042114 C412.02610586 104.05275549 407.99504712 105.9267507 403.9453125 107.765625 C394.55789973 112.04324017 386.17459187 116.65605617 378 123 C376.84371094 123.86431641 376.84371094 123.86431641 375.6640625 124.74609375 C359.9825647 137.45546652 351.00929551 156.43931102 342 174 C337.26967249 183.18799784 332.44822852 191.87314826 326 200 C325.60474121 200.51272461 325.20948242 201.02544922 324.80224609 201.55371094 C311.67277814 218.50645553 292.79841505 231.99356117 272 238 C271.01 238 270.02 238 269 238 C268.88785156 239.24265625 268.77570313 240.4853125 268.66015625 241.765625 C268.01422249 247.53072421 266.76265714 253.10771587 265.4375 258.75 C265.17356445 259.87398193 264.90962891 260.99796387 264.63769531 262.15600586 C254.24577736 305.7449958 239.49226776 346.68206054 209.28369141 380.54882812 C207.63044337 382.4177719 206.04009369 384.33759703 204.4375 386.25 C192.42075096 399.82287481 177.08855345 410.77639898 161 419 C160.36884277 419.32564941 159.73768555 419.65129883 159.08740234 419.98681641 C149.1636042 425.00128056 138.92389568 428.4224448 128.25 431.5 C127.03554199 431.850625 125.82108398 432.20125 124.56982422 432.5625 C119.20824987 434.0500351 114.59873239 435.19615387 109 435 C112.81213489 428.74185365 116.85175981 422.79041713 121.25 416.9375 C138.20422306 394.18708678 149.71319549 370.22919772 153.89453125 342.01953125 C158.28875555 312.58290551 167.95733234 293.99706674 189.9140625 273.796875 C195.1112529 269.00398527 200.17549354 264.09287395 204.8125 258.75 C205.37582031 258.10546875 205.93914062 257.4609375 206.51953125 256.796875 C208.16687572 254.85907919 208.16687572 254.85907919 210 252 C190.17097215 256.1062837 174.18175025 264.25695102 158.08203125 276.4831543 C133.8924599 294.83239645 107.79371737 302.65021139 77.40869141 298.51074219 C55.89473265 294.85957095 35.98212686 287.51569914 16 279 C52.9858012 308.87554599 95.09317501 321.06956366 142 322 C140.35 330.58 138.7 339.16 137 348 C127.85105816 348 120.05738112 347.66079735 111.25 345.9375 C110.08968262 345.71489502 108.92936523 345.49229004 107.73388672 345.26293945 C66.98996835 337.16111487 28.48163961 321.15762808 -4 295 C-4.58942383 294.52626953 -5.17884766 294.05253906 -5.78613281 293.56445312 C-19.46265651 282.45561104 -32.30357341 270.01995914 -43 256 C-43.91632697 254.83567008 -44.83301768 253.67162636 -45.75 252.5078125 C-64.73415105 228.12288976 -79.73412481 200.35300461 -88.94873047 170.82617188 C-92.57944107 159.28415155 -97.94779363 152.25553992 -108.69042969 146.578125 C-116.78699204 142.71297107 -124.85348404 140.09305678 -133.48452759 137.73165894 C-158.97309809 130.71256557 -183.72956739 121.91590625 -198 98 C-206.43368089 82.14864872 -210.17790311 68.34036958 -210.1875 50.375 C-210.19974609 49.16070312 -210.21199219 47.94640625 -210.22460938 46.6953125 C-210.22654297 45.52484375 -210.22847656 44.354375 -210.23046875 43.1484375 C-210.23457764 42.08802246 -210.23868652 41.02760742 -210.24291992 39.93505859 C-209.99318606 36.91767112 -209.27208711 34.73071759 -208 32 C-204.84366087 34.98610961 -202.34334488 38.16091287 -199.8125 41.6875 C-191.03287844 53.51226494 -180.44849822 63.29722705 -165.33374023 65.68798828 C-158.93316044 66.54372015 -152.54760924 67.04379914 -146.08984375 67.10546875 C-123.12356555 67.34764716 -105.5951785 72.52230949 -89 89 C-87.22748637 90.9477734 -85.60693211 92.91098825 -84 95 C-83.85304688 94.27296875 -83.70609375 93.5459375 -83.5546875 92.796875 C-80.59090141 79.51093737 -75.25376037 68.23857645 -64 60 C-59.26630347 57.09520122 -54.15813446 55.02059252 -49 53 C-48.04722168 52.62415771 -48.04722168 52.62415771 -47.07519531 52.24072266 C-45.80475939 51.74053314 -44.53408989 51.2409365 -43.26318359 50.74194336 C-42.64008301 50.49710205 -42.01698242 50.25226074 -41.375 50 C-40.7557666 49.75709229 -40.1365332 49.51418457 -39.49853516 49.26391602 C-25.3399784 43.62095903 -13.68399779 37.20068022 -7.2109375 22.94921875 C-4.5041014 16.35676308 -2.66557527 9.99379626 -1.4296875 2.96875 C-1 1 -1 1 0 0 Z " fill="#FC4502" transform="translate(360,354)"/>
<path d="M0 0 C-1.41236251 70.61812542 -39.86153404 136.52698024 -89.27490234 184.36816406 C-93.31052287 188.18561207 -97.60287213 191.61271121 -102 195 C-103.26358527 196.00319572 -104.52656184 197.00715842 -105.7890625 198.01171875 C-121.47925491 210.3803725 -138.36814382 220.64730876 -156 230 C-156.6496875 230.34482422 -157.299375 230.68964844 -157.96875 231.04492188 C-186.35785001 245.96665169 -228.39087729 268 -261 268 C-260.37472479 264.35529295 -259.37126791 261.16111251 -257.9609375 257.74609375 C-257.5489209 256.73796631 -257.1369043 255.72983887 -256.71240234 254.69116211 C-256.27105957 253.61745361 -255.8297168 252.54374512 -255.375 251.4375 C-247.64220445 232.25956184 -241.56593161 213.26115565 -236.69921875 193.17578125 C-236.395 191.9321582 -236.09078125 190.68853516 -235.77734375 189.40722656 C-235.30553439 187.33920789 -234.88252811 185.25813947 -234.55078125 183.16308594 C-233.917347 179.17665151 -233.56061865 177.40901473 -230.2265625 174.9765625 C-229.03804687 174.53054688 -227.84953125 174.08453125 -226.625 173.625 C-225.26016042 173.06683972 -223.89831957 172.50130816 -222.5390625 171.9296875 C-221.80719727 171.62772461 -221.07533203 171.32576172 -220.32128906 171.01464844 C-206.86803528 165.13415593 -194.42988411 157.15752201 -183 148 C-182.42668945 147.54093262 -181.85337891 147.08186523 -181.26269531 146.60888672 C-157.98380132 127.78133931 -135.89992608 101.74028919 -128.703125 71.92578125 C-125.41610038 58.57280395 -125.41610038 58.57280395 -120.36328125 55.02734375 C-116.38656688 52.71145034 -111.67978939 50 -107 50 C-112.58655606 80.61234236 -125.25417819 111.76483238 -145 136 C-145.66644531 136.8559375 -146.33289063 137.711875 -147.01953125 138.59375 C-156.81543779 151.1139619 -167.49380987 162.19895722 -180 172 C-180.5789502 172.45536133 -181.15790039 172.91072266 -181.75439453 173.37988281 C-191.70075 181.15253145 -202.06661713 188.04732407 -212.81640625 194.65576172 C-216.22223552 196.75241825 -219.61082164 198.87656894 -223 201 C-186.95145004 186.96539326 -154.79336616 169.24028414 -127 142 C-126.40566162 141.4239502 -125.81132324 140.84790039 -125.19897461 140.25439453 C-121.40638484 136.53431394 -117.94023448 132.69899566 -114.6875 128.5 C-114.22021484 127.89744385 -113.75292969 127.2948877 -113.27148438 126.67407227 C-94.35628595 101.98667514 -75.81361365 69.43757276 -74.828125 37.53515625 C-74 34 -74 34 -72.47607422 32.65234375 C-70.40611137 31.44456587 -68.3355059 30.48706812 -66.125 29.5625 C-65.39152344 29.22541016 -64.65804687 28.88832031 -63.90234375 28.54101562 C-60.96360829 27.20547009 -58.06443659 26.02147886 -55 25 C-60.31023801 80.19852664 -86.77539231 137.49927513 -129.984375 173.35546875 C-130.64953125 173.89816406 -131.3146875 174.44085937 -132 175 C-133.24523437 176.07701172 -133.24523437 176.07701172 -134.515625 177.17578125 C-154.56015465 194.34507099 -176.96883441 207.91906977 -200.3125 220.125 C-201.80438843 220.90520508 -201.80438843 220.90520508 -203.32641602 221.70117188 C-210.07829356 225.16570533 -216.95674346 228.17772695 -224 231 C-215.53654549 228.66067985 -207.36524384 225.61211853 -199.1875 222.4375 C-198.50602905 222.17333282 -197.82455811 221.90916565 -197.12243652 221.63699341 C-167.1654286 209.9808682 -138.66319701 194.83122921 -114 174 C-113.02417969 173.20722656 -112.04835938 172.41445313 -111.04296875 171.59765625 C-88.31398686 152.99235113 -68.91842978 129.92047466 -55 104 C-54.51563477 103.09797852 -54.03126953 102.19595703 -53.53222656 101.26660156 C-46.52437309 87.97971137 -40.7334234 74.50940759 -36.0625 60.25 C-35.82963287 59.54187164 -35.59676575 58.83374329 -35.35684204 58.10415649 C-32.80294792 50.21677124 -30.74935597 42.43570897 -29.546875 34.2265625 C-29.44278824 33.52058426 -29.33870148 32.81460602 -29.23146057 32.0872345 C-29.1293779 31.39208237 -29.02729523 30.69693024 -28.92211914 29.98071289 C-26.3156198 12.29254283 -26.3156198 12.29254283 -21.36328125 8.43359375 C-18.07115351 6.53888265 -14.74485234 5.44237471 -11.05957031 4.58056641 C-8.01464502 3.72224109 -5.34467812 2.27640347 -2.56201172 0.79370117 C-1 0 -1 0 0 0 Z " fill="#F94605" transform="translate(875,427)"/>
<path d="M0 0 C0.33 0 0.66 0 1 0 C0.60651326 8.36677075 0.11561739 16.64054562 -1.0625 24.9375 C-1.82558117 30.80332244 -2.2718037 36.58483697 -2.375 42.5 C-2.40086182 43.22952881 -2.42672363 43.95905762 -2.45336914 44.71069336 C-2.48443105 53.46514097 1.73473807 59.28161284 7.6875 65.3125 C8.75621863 66.4339989 9.82259698 67.55773223 10.88671875 68.68359375 C11.41185059 69.23772949 11.93698242 69.79186523 12.47802734 70.36279297 C18.0772845 76.38599132 23.24625738 82.65572096 27 90 C32.72434829 75.40291186 33.68437302 63.80184352 27.99609375 48.984375 C27.66738281 47.99953125 27.33867187 47.0146875 27 46 C27.495 45.01 27.495 45.01 28 44 C30.38548332 46.14693498 32.77036061 48.29449228 35.15234375 50.4453125 C36.92520318 52.03577899 38.70748832 53.61587907 40.50390625 55.1796875 C52.42710282 65.62923056 65.12511707 77.12120857 66.265625 93.91015625 C66.27357104 95.29425782 66.26792632 96.67849171 66.25 98.0625 C66.24613281 98.79331787 66.24226562 99.52413574 66.23828125 100.27709961 C66.12889159 107.29095202 65.22609579 114.09226387 64 121 C75.86162722 111.70883813 75.86162722 111.70883813 80.68359375 98.34765625 C80.80769222 97.00062794 80.9320492 95.65362343 81.05664062 94.30664062 C81.24856924 92.18264703 81.43784789 90.05849311 81.62231445 87.93383789 C81.80195781 85.88352419 81.99209301 83.83439165 82.18359375 81.78515625 C82.29243896 80.55676025 82.40128418 79.32836426 82.51342773 78.06274414 C83 75 83 75 85 72 C85.25056152 72.50225098 85.50112305 73.00450195 85.75927734 73.52197266 C90.0957589 82.14970263 94.42763612 90.67893148 100.125 98.5 C100.73939941 99.34389282 100.73939941 99.34389282 101.36621094 100.20483398 C103.31326416 102.83536949 105.3240507 105.39296408 107.40625 107.91796875 C111.68468121 113.25847531 114.08720263 116.99511591 113.53515625 123.9609375 C110.03574788 143.83349012 110.03574788 143.83349012 103.4609375 148.9921875 C97.09632672 152.87540572 90.69955868 156.1891108 83.8125 159.0625 C83.06983887 159.37364746 82.32717773 159.68479492 81.56201172 160.00537109 C79.73335605 160.73708787 77.86854272 161.37715243 76 162 C75.34 161.67 74.68 161.34 74 161 C74.2165625 160.48953125 74.433125 159.9790625 74.65625 159.453125 C77.13986899 152.96811987 77.58351805 146.91244461 77 140 C76.67 139.67 76.34 139.34 76 139 C75.72027344 139.64066406 75.44054687 140.28132812 75.15234375 140.94140625 C71.37102725 149.09980937 66.99929739 154.1706168 59.4375 159 C50.77940028 164.6152701 47.54725938 171.44123468 44 181 C43.67 181 43.34 181 43 181 C42.90203125 179.82824219 42.8040625 178.65648437 42.703125 177.44921875 C40.83458603 157.03668128 34.03620228 145.49245272 19.3059082 131.32763672 C14.36882549 126.54699308 10.0774276 121.53215167 6 116 C6.80781272 124.69805539 8.97470188 131.94888626 12.125 140.0625 C15.67437703 149.34819648 18.40381217 157.59520599 14.5 167.25 C14.005 168.1575 13.51 169.065 13 170 C9.97248357 168.5898596 7.40211922 166.92293228 4.734375 164.91796875 C3.52201172 164.01401367 3.52201172 164.01401367 2.28515625 163.09179688 C0.61066841 161.83399592 -1.06381092 160.57618364 -2.73828125 159.31835938 C-7.6965793 155.6212449 -12.70702102 152.20139857 -18 149 C-16.02039771 160.52012857 -16.02039771 160.52012857 -11.76953125 171.36328125 C-11 173 -11 173 -11 175 C-37.38989853 176.01067697 -37.38989853 176.01067697 -47 168 C-48.765625 164.92578125 -48.765625 164.92578125 -50.25 161.3125 C-53.22324714 154.38242716 -56.8006497 147.9899681 -60.71191406 141.5480957 C-61.1240918 140.86706787 -61.53626953 140.18604004 -61.9609375 139.484375 C-62.33009277 138.88334961 -62.69924805 138.28232422 -63.07958984 137.66308594 C-66.35510849 131.74456258 -65.55999973 124.50641628 -63.93359375 118.16796875 C-63.44967598 116.5034442 -62.95040099 114.84332335 -62.4375 113.1875 C-62.17372559 112.3003833 -61.90995117 111.4132666 -61.63818359 110.49926758 C-58.65480255 100.59322479 -55.3587629 90.78415723 -52 81 C-49.48794279 83.51205721 -49.03228275 85.57136236 -47.9765625 88.9609375 C-47.595 90.15460938 -47.2134375 91.34828125 -46.8203125 92.578125 C-46.0263782 95.10003395 -45.23727652 97.62346961 -44.453125 100.1484375 C-44.06898438 101.3446875 -43.68484375 102.5409375 -43.2890625 103.7734375 C-42.94568848 104.87091309 -42.60231445 105.96838867 -42.24853516 107.09912109 C-40.29588626 111.6359561 -37.36582354 114.02519354 -33.109375 116.359375 C-32.40039062 116.75253906 -31.69140625 117.14570313 -30.9609375 117.55078125 C-30.23132813 117.94652344 -29.50171875 118.34226562 -28.75 118.75 C-27.63238281 119.36681641 -27.63238281 119.36681641 -26.4921875 119.99609375 C-24.66480769 121.00349544 -22.83285137 122.00258786 -21 123 C-20.53054779 106.85492616 -27.38433414 92.12488743 -33.1237793 77.30566406 C-34.79343657 72.91217193 -35.38125671 68.9784611 -35.5625 64.3125 C-35.62501953 63.64927734 -35.68753906 62.98605469 -35.75195312 62.30273438 C-36.1470631 49.26410526 -25.27801229 35.81151502 -18.23608398 25.4699707 C-16.92527476 23.54454253 -15.62866334 21.61013082 -14.33398438 19.67382812 C-4.75602538 5.41484515 -4.75602538 5.41484515 0 0 Z " fill="#FB4603" transform="translate(231,235)"/>
<path d="M0 0 C-2.13483872 23.83512236 -13.82268741 48.67278196 -29 67 C-29.5067627 67.62052246 -30.01352539 68.24104492 -30.53564453 68.88037109 C-46.18997158 87.91305907 -64.86803175 101.57518534 -86 114 C-87.68400997 110.63198007 -85.78020707 107.20027512 -84.75 103.75 C-80.71922549 89.76528093 -77.82050765 76.19937817 -77.90234375 61.59375 C-77.90446617 60.14579041 -77.90446617 60.14579041 -77.90663147 58.6685791 C-77.9121892 55.61235335 -77.9247337 52.55620327 -77.9375 49.5 C-77.94252047 47.41666773 -77.94708242 45.3333343 -77.95117188 43.25 C-77.96214476 38.16663791 -77.97937989 33.08333174 -78 28 C-73.74273625 26.58011176 -69.48526278 25.1609277 -65.22558594 23.74829102 C-46.97155639 17.67671776 -18.61702611 0 0 0 Z " fill="#FB4503" transform="translate(715,676)"/>
<path d="M0 0 C6.16516893 0.07706461 12.20945776 1.19999972 18.28125 2.1875 C19.48523438 2.37828125 20.68921875 2.5690625 21.9296875 2.765625 C24.88112808 3.23410763 27.83154931 3.70820551 30.78125 4.1875 C28.78125 7.1875 28.78125 7.1875 25.78125 8.375 C22.71053226 9.80397779 22.71053226 9.80397779 22.12109375 11.98046875 C21.92193359 13.01107422 21.92193359 13.01107422 21.71875 14.0625 C21.1161944 17.17283464 20.62205823 18.42628766 18.78125 21.1875 C14.47565083 24.05789945 10.81028395 24.19170007 5.78125 23.1875 C2.99439158 21.81645519 1.88973208 20.62036394 -0.21875 18.1875 C-0.87109375 15.51171875 -0.87109375 15.51171875 -1.21875 13.1875 C-2.89904297 13.85458984 -2.89904297 13.85458984 -4.61328125 14.53515625 C-6.0857472 15.10726086 -7.55841403 15.67884865 -9.03125 16.25 C-9.76923828 16.54455078 -10.50722656 16.83910156 -11.26757812 17.14257812 C-16.87890625 19.30078125 -16.87890625 19.30078125 -20.21875 18.1875 C-17.5731682 15.37476331 -14.92724239 12.56235045 -12.28125 9.75 C-11.52650391 8.94755859 -10.77175781 8.14511719 -9.99414062 7.31835938 C-9.27548828 6.55458984 -8.55683594 5.79082031 -7.81640625 5.00390625 C-7.15133057 4.29693604 -6.48625488 3.58996582 -5.80102539 2.86157227 C-3.27677947 0.19088036 -3.27677947 0.19088036 0 0 Z " fill="#FEF7F1" transform="translate(646.21875,514.8125)"/>
<path d="M0 0 C0 0.33 0 0.66 0 1 C-1.05316406 0.83757812 -2.10632813 0.67515625 -3.19140625 0.5078125 C-9.09477049 -0.22864423 -14.99724672 -0.14549541 -20.9375 -0.125 C-22.08541016 -0.12886719 -23.23332031 -0.13273437 -24.41601562 -0.13671875 C-25.50462891 -0.13542969 -26.59324219 -0.13414062 -27.71484375 -0.1328125 C-28.70605225 -0.13168457 -29.69726074 -0.13055664 -30.71850586 -0.12939453 C-32.96601535 -0.25596238 -32.96601535 -0.25596238 -34 1 C-35.51928038 1.07179964 -37.04167482 1.08392007 -38.5625 1.0625 C-39.38878906 1.05347656 -40.21507812 1.04445313 -41.06640625 1.03515625 C-41.70449219 1.02355469 -42.34257812 1.01195312 -43 1 C-41.9790625 1.99 -41.9790625 1.99 -40.9375 3 C-38.61307293 5.33110646 -36.38451905 7.73594826 -34.1875 10.1875 C-33.28064453 11.19876953 -33.28064453 11.19876953 -32.35546875 12.23046875 C-31 14 -31 14 -31 16 C-30.34 16 -29.68 16 -29 16 C-29 17.32 -29 18.64 -29 20 C-28.34 20 -27.68 20 -27 20 C-25.22323035 26.66288618 -24.87170361 34.74340722 -28 41 C-31.65592204 43.65038734 -35.77159884 43.2888475 -40.09765625 43.265625 C-40.88716171 43.26753845 -41.67666718 43.2694519 -42.49009705 43.27142334 C-44.16193968 43.27278296 -45.83379295 43.2691021 -47.50561523 43.26074219 C-50.0293847 43.25013913 -52.55242597 43.26059275 -55.07617188 43.2734375 C-63.57838667 43.27974829 -71.69035453 43.04681406 -80 41 C-80 40.34 -80 39.68 -80 39 C-78.96746094 39.144375 -77.93492187 39.28875 -76.87109375 39.4375 C-67.90676218 40.60694158 -59.04291967 41.21463292 -50 41.25 C-49.05825928 41.25902344 -48.11651855 41.26804687 -47.14624023 41.27734375 C-40.8861569 41.25087172 -35.0874948 40.44924632 -29 39 C-28.30053106 28.67635651 -28.15743107 20.44649813 -35 12 C-38.43359299 8.39429709 -42.15118934 5.15712049 -46 2 C-45.67 1.34 -45.34 0.68 -45 0 C-29.97861895 -4.54183227 -15.07308569 -3.95668499 0 0 Z " fill="#DF5626" transform="translate(436,496)"/>
<path d="M0 0 C0.33 0 0.66 0 1 0 C1 1.98 1 3.96 1 6 C0.34 6 -0.32 6 -1 6 C-0.979375 7.134375 -0.95875 8.26875 -0.9375 9.4375 C-1 13 -1 13 -2 14 C-2.23192865 15.51469448 -2.41215238 17.03754562 -2.5625 18.5625 C-2.64628906 19.38878906 -2.73007812 20.21507812 -2.81640625 21.06640625 C-2.90728516 22.02353516 -2.90728516 22.02353516 -3 23 C-3.66 23 -4.32 23 -5 23 C-4.94779297 24.32451172 -4.94779297 24.32451172 -4.89453125 25.67578125 C-4.73496927 32.74969581 -5.14496179 38.7596071 -7.265625 45.51171875 C-8.29403177 48.99626722 -8.65937152 52.38933808 -9 56 C-9.66 56 -10.32 56 -11 56 C-10.938125 57.051875 -10.87625 58.10375 -10.8125 59.1875 C-11.015752 63.32029069 -11.73967049 64.65136369 -14 68 C-15.76820139 71.96077112 -17.41029564 75.96459662 -19 80 C-19.66 80 -20.32 80 -21 80 C-21 80.99 -21 81.98 -21 83 C-21.66 83 -22.32 83 -23 83 C-21.74190407 79.83194495 -20.45666064 76.67590127 -19.16015625 73.5234375 C-18.46076889 71.80736038 -17.76155516 70.09121248 -17.0625 68.375 C-16.71509766 67.53582031 -16.36769531 66.69664062 -16.00976562 65.83203125 C-11.17345319 53.900639 -9.05978485 41.89681335 -7.34863281 29.19921875 C-5.958689 18.99654343 -3.57054366 9.66188069 0 0 Z " fill="#E15A2B" transform="translate(522,662)"/>
<path d="M0 0 C10.6064161 0.5562135 10.6064161 0.5562135 14.75 2.5 C18.22104747 4.10202191 21.22779092 4.54733491 25 5 C25.33 5.33 25.66 5.66 26 6 C35.77249659 8.38969146 45.75625512 8.42293608 55.75 8.625 C57.3333523 8.66328598 58.91668614 8.70234338 60.5 8.7421875 C64.33317911 8.83700021 68.16645481 8.92143851 72 9 C72 9.33 72 9.66 72 10 C48.01275567 14.98703877 22.62628228 8.95570927 0 1 C0 0.67 0 0.34 0 0 Z " fill="#DE5524" transform="translate(401,642)"/>
<path d="M0 0 C1.32 0 2.64 0 4 0 C4 0.66 4 1.32 4 2 C4.69480469 2.11601562 5.38960937 2.23203125 6.10546875 2.3515625 C9.33234644 3.07445278 12.2375588 4.15975378 15.3125 5.375 C16.46363281 5.82359375 17.61476562 6.2721875 18.80078125 6.734375 C20.59362794 7.44363303 22.38455214 8.15797817 24.16796875 8.890625 C29.28640422 10.94236459 34.51670659 12.06180399 39.89453125 13.25 C43.07491519 14.01809273 45.99977385 15.01732831 49.0234375 16.24609375 C52.21694843 17.46417203 55.50960459 18.33940347 58.80078125 19.25390625 C61 20 61 20 64 22 C64 22.66 64 23.32 64 24 C62.85402344 23.60167969 61.70804688 23.20335937 60.52734375 22.79296875 C56.15854235 21.33499539 51.74830806 20.05038441 47.31640625 18.80078125 C5.8567194 7.066964 5.8567194 7.066964 0 0 Z " fill="#E25F2F" transform="translate(186,475)"/>
<path d="M0 0 C2.60608273 2.5162178 4.89381685 5.05134359 7 8 C6.67 8.66 6.34 9.32 6 10 C4.68 8.68 3.36 7.36 2 6 C1.67 6.99 1.34 7.98 1 9 C0.34 9 -0.32 9 -1 9 C-0.86183041 12.64616671 -0.71318466 16.29183074 -0.5625 19.9375 C-0.50352539 21.49887695 -0.50352539 21.49887695 -0.44335938 23.09179688 C-0.40146484 24.08115234 -0.35957031 25.07050781 -0.31640625 26.08984375 C-0.27974854 27.00628662 -0.24309082 27.92272949 -0.20532227 28.86694336 C-0.22996136 30.9820728 -0.22996136 30.9820728 1 32 C1.27694205 33.74593903 1.52057383 35.49718408 1.75 37.25 C2.9932385 45.07398963 5.35046137 52.95659978 9.72265625 59.62890625 C11 62 11 62 10.57983398 64.14819336 C10.29281616 65.06483765 10.29281616 65.06483765 10 66 C2.03307905 49.68768205 -2.17773126 36.66208182 -2.1875 18.375 C-2.19974609 17.16070312 -2.21199219 15.94640625 -2.22460938 14.6953125 C-2.22654297 13.52484375 -2.22847656 12.354375 -2.23046875 11.1484375 C-2.23457764 10.08802246 -2.23868652 9.02760742 -2.24291992 7.93505859 C-1.99318606 4.91767112 -1.27208711 2.73071759 0 0 Z " fill="#DD4F1D" transform="translate(152,386)"/>
<path d="M0 0 C6.65582638 9.98373957 6.49037313 25.43726443 4.34375 36.9609375 C2.27403375 45.61449251 -1.22833513 57.81889008 -9 63 C-9 62.01 -9 61.02 -9 60 C-8.34 60 -7.68 60 -7 60 C-7 59.01 -7 58.02 -7 57 C-6.34 57 -5.68 57 -5 57 C-5 55.68 -5 54.36 -5 53 C-4.34 53 -3.68 53 -3 53 C-3 51.68 -3 50.36 -3 49 C-2.34 49 -1.68 49 -1 49 C-0.86722656 48.14535156 -0.73445313 47.29070312 -0.59765625 46.41015625 C-0.33275391 44.75306641 -0.33275391 44.75306641 -0.0625 43.0625 C0.11152344 41.96035156 0.28554688 40.85820312 0.46484375 39.72265625 C1 37 1 37 2 36 C2.25541217 32.52854086 2.18524776 29.04221676 2.1875 25.5625 C2.19974609 24.60150391 2.21199219 23.64050781 2.22460938 22.65039062 C2.23614502 16.94793665 1.74490809 11.72519412 0.4309082 6.17163086 C0 4 0 4 0 0 Z " fill="#DF5C2D" transform="translate(370,377)"/>
<path d="M0 0 C0.99 0.99 0.99 0.99 2 2 C-1.03437501 1.56651786 -3.84420401 1.05311227 -6.75 0.0625 C-14.19816744 -2.37247782 -25.60599742 -5.69700129 -33 -2 C-36.3406635 -1.68351609 -39.68217611 -1.48871475 -43.03125 -1.28125 C-45.9264801 -1.18711938 -45.9264801 -1.18711938 -48 0 C-50.71760108 0.07181821 -53.40859388 0.09299506 -56.125 0.0625 C-56.87910156 0.05798828 -57.63320313 0.05347656 -58.41015625 0.04882812 C-60.27347127 0.03703499 -62.13674555 0.01909942 -64 0 C-64 -0.33 -64 -0.66 -64 -1 C-19.6911502 -8.58398886 -19.6911502 -8.58398886 0 0 Z " fill="#E05A29" transform="translate(850,399)"/>
<path d="M0 0 C0.33 0 0.66 0 1 0 C0.60651326 8.36677075 0.11561739 16.64054562 -1.0625 24.9375 C-1.82558117 30.80332244 -2.2718037 36.58483697 -2.375 42.5 C-2.40086182 43.22952881 -2.42672363 43.95905762 -2.45336914 44.71069336 C-2.48313732 53.10051823 1.54570551 58.93967279 7 65 C4 65 4 65 2.39453125 63.57421875 C1.87246094 62.95160156 1.35039062 62.32898438 0.8125 61.6875 C0.28269531 61.07261719 -0.24710938 60.45773437 -0.79296875 59.82421875 C-2 58 -2 58 -2 55 C-2.66 55 -3.32 55 -4 55 C-4.29826461 38.88682804 -3.52598334 23.04108819 -2 7 C-2.66 7 -3.32 7 -4 7 C-2.92598892 4.08482708 -2.22189824 2.22189824 0 0 Z " fill="#DB4C19" transform="translate(231,235)"/>
<path d="M0 0 C1.66611905 -0.042721 3.33382885 -0.04063832 5 0 C5.33 0.33 5.66 0.66 6 1 C12.64885033 2.80307806 19.08888195 3.38709718 25.9609375 3.75390625 C29 4 29 4 32 5 C33.59100661 5.12436298 35.18602978 5.20092018 36.78125 5.24609375 C38.16763672 5.29540039 38.16763672 5.29540039 39.58203125 5.34570312 C41.5272249 5.4068973 43.47254522 5.46418966 45.41796875 5.51757812 C46.34222656 5.55173828 47.26648438 5.58589844 48.21875 5.62109375 C49.06373047 5.6461499 49.90871094 5.67120605 50.77929688 5.69702148 C53 6 53 6 56 8 C13.6169765 6.94300246 13.6169765 6.94300246 0 1 C0 0.67 0 0.34 0 0 Z " fill="#FEE8D7" transform="translate(181,415)"/>
<path d="M0 0 C1.10844919 3.32534757 0.84454356 5.62182575 0 9 C-0.66 9 -1.32 9 -2 9 C-1.6670153 16.3256635 -1.03486743 23.02397036 1.37890625 29.9765625 C2 32 2 32 2 35 C2.66 35 3.32 35 4 35 C4.48212214 36.56159059 4.96055873 38.12431928 5.4375 39.6875 C5.83775391 40.99267578 5.83775391 40.99267578 6.24609375 42.32421875 C7 45 7 45 7.47265625 47.76953125 C7.64667969 48.50558594 7.82070312 49.24164063 8 50 C8.66 50.33 9.32 50.66 10 51 C10.4140625 53.28515625 10.4140625 53.28515625 10.625 56.0625 C10.69976562 56.98160156 10.77453125 57.90070313 10.8515625 58.84765625 C10.90054688 59.55792969 10.94953125 60.26820313 11 61 C9.13073557 57.50008907 7.7926249 53.87679438 6.43359375 50.15234375 C6.19463882 49.49923721 5.9556839 48.84613068 5.70948792 48.17323303 C4.94994834 46.09545477 4.19373462 44.0164831 3.4375 41.9375 C2.92533721 40.53573164 2.41296955 39.13403812 1.90039062 37.73242188 C-3.19508432 23.78141753 -3.19508432 23.78141753 -3.25 15.75 C-3.270625 15.01136719 -3.29125 14.27273438 -3.3125 13.51171875 C-3.34952974 8.26275278 -2.3586191 4.69241064 0 0 Z " fill="#DC5525" transform="translate(199,283)"/>
<path d="M0 0 C0.66 0.33 1.32 0.66 2 1 C1.67 1.33 1.34 1.66 1 2 C1.66 2.66 2.32 3.32 3 4 C-1.05141525 5.5990225 -5.10814854 7.18344112 -9.17041016 8.75463867 C-10.55119098 9.29103263 -11.93044694 9.83136937 -13.30810547 10.37573242 C-15.29005279 11.15808005 -17.27707351 11.92602705 -19.265625 12.69140625 C-20.45961914 13.15748291 -21.65361328 13.62355957 -22.88378906 14.10375977 C-25.89164525 14.96883655 -27.15686184 15.16002498 -30 14 C-29.30438965 13.68248779 -28.6087793 13.36497559 -27.89208984 13.0378418 C-24.71922188 11.58883005 -21.54710542 10.13818028 -18.375 8.6875 C-16.73337891 7.93823242 -16.73337891 7.93823242 -15.05859375 7.17382812 C-13.99511719 6.68720703 -12.93164062 6.20058594 -11.8359375 5.69921875 C-10.86188965 5.25408936 -9.8878418 4.80895996 -8.88427734 4.3503418 C-6.81465715 3.38140077 -4.77575114 2.34580643 -2.76025391 1.26879883 C-1.84937012 0.85009521 -0.93848633 0.4313916 0 0 Z " fill="#FEE8D8" transform="translate(679,644)"/>
<path d="M0 0 C2.67733998 2.67031284 3.00280229 4.03721441 3.29296875 7.890625 C3.27314945 9.34404009 3.23754845 10.79731167 3.1875 12.25 C3.16719727 13.36761719 3.16719727 13.36761719 3.14648438 14.5078125 C3.11127204 16.33885416 3.05746851 18.16952169 3 20 C-3.81471959 24.08883175 -12.29137441 23.12420058 -19.9375 23.0625 C-21.53561523 23.05573242 -21.53561523 23.05573242 -23.16601562 23.04882812 C-25.77740291 23.03711787 -28.38867124 23.02071724 -31 23 C-31 22.67 -31 22.34 -31 22 C-20.00846188 20.47627399 -9.08388834 19.52127198 2 19 C2 14.38 2 9.76 2 5 C1.34 5 0.68 5 0 5 C0 3.35 0 1.7 0 0 Z " fill="#FBDBC8" transform="translate(405,515)"/>
<path d="M0 0 C0.33 0 0.66 0 1 0 C0.96970703 0.7434668 0.93941406 1.48693359 0.90820312 2.25292969 C0.29698694 17.50982599 -0.15832456 32.73047615 0 48 C-4.09156182 43.90843818 -3.23706006 38.45664583 -3.25976562 33.04931641 C-3.14655624 21.96132752 -1.50343764 10.96923027 0 0 Z " fill="#FBDBC8" transform="translate(231,243)"/>
<path d="M0 0 C-1.875 3.875 -1.875 3.875 -3 5 C-3.29509061 6.40950688 -3.53705963 7.83026105 -3.75390625 9.25390625 C-3.88603516 10.10791016 -4.01816406 10.96191406 -4.15429688 11.84179688 C-4.28900391 12.73962891 -4.42371094 13.63746094 -4.5625 14.5625 C-4.70107422 15.46419922 -4.83964844 16.36589844 -4.98242188 17.29492188 C-5.32528051 19.52941433 -5.66430023 21.7644227 -6 24 C-6.66 24 -7.32 24 -8 24 C-7.938125 25.299375 -7.87625 26.59875 -7.8125 27.9375 C-7.78812858 33.05549789 -9.12566102 37.28068221 -11 42 C-11.66 42 -12.32 42 -13 42 C-11.55541074 34.39897426 -10.09566703 26.80103794 -8.61962891 19.20605469 C-8.10586977 16.54778636 -7.60334892 13.88782944 -7.10546875 11.2265625 C-6.86441406 9.99679687 -6.62335937 8.76703125 -6.375 7.5 C-6.17648437 6.4584375 -5.97796875 5.416875 -5.7734375 4.34375 C-4.75788195 1.26630892 -3.32820107 0 0 0 Z " fill="#E15323" transform="translate(855,437)"/>
<path d="M0 0 C1.90265625 0.48726562 1.90265625 0.48726562 3.84375 0.984375 C9.09941956 2.14818915 14.13438171 2.2968613 19.5 2.25 C20.82837891 2.26160156 20.82837891 2.26160156 22.18359375 2.2734375 C28.07388814 2.25613854 33.2932856 1.46147564 39 0 C37.5625 2 37.5625 2 35 4 C31.97175582 4.35442445 29.03514061 4.23347235 26 4 C26 4.66 26 5.32 26 6 C16.70030756 6.69602688 8.79878389 4.65982131 0 2 C0 1.34 0 0.68 0 0 Z " fill="#E34C18" transform="translate(432,617)"/>
<path d="M0 0 C0 0.66 0 1.32 0 2 C-3.3 2.66 -6.6 3.32 -10 4 C-10 4.66 -10 5.32 -10 6 C-21.43359569 9.26674163 -33.88066786 9.49049952 -45 5 C-45 4.67 -45 4.34 -45 4 C-44.45214844 4.0721875 -43.90429688 4.144375 -43.33984375 4.21875 C-27.56496523 6.06556505 -14.67218493 0 0 0 Z " fill="#E1521F" transform="translate(506,501)"/>
<path d="M0 0 C1.17883915 3.51041384 0.8354016 6.11899274 0.1796875 9.734375 C-0.02374268 10.85932373 -0.22717285 11.98427246 -0.43676758 13.14331055 C-0.66388428 14.33351807 -0.89100098 15.52372559 -1.125 16.75 C-1.35147217 17.95889893 -1.57794434 19.16779785 -1.8112793 20.41333008 C-3.57860052 29.52895484 -5.85572832 38.26293871 -9 47 C-9.33 47 -9.66 47 -10 47 C-9.66666667 44.66666667 -9.33333333 42.33333333 -9 40 C-8.87625 38.865625 -8.7525 37.73125 -8.625 36.5625 C-8.12909379 33.73583463 -7.58128563 31.82723906 -6.5 29.25 C-5.22172516 26.05737097 -4.76870242 23.30500121 -4.5625 19.875 C-4.11484603 12.95582666 -2.06501723 6.57924096 0 0 Z " fill="#FCDAC7" transform="translate(849,439)"/>
<path d="M0 0 C-2.70879335 1.35439668 -5.00933268 1.06501451 -8 1 C-8 1.66 -8 2.32 -8 3 C-12.18744075 3.05840224 -16.37477565 3.09373166 -20.5625 3.125 C-21.74392578 3.14175781 -22.92535156 3.15851562 -24.14257812 3.17578125 C-30.15396759 3.2094585 -35.34183122 3.11038894 -41 1 C-41 0.67 -41 0.34 -41 0 C-40.09233887 0.00523682 -39.18467773 0.01047363 -38.24951172 0.01586914 C-34.86132158 0.03297684 -31.47317779 0.04548213 -28.08496094 0.05493164 C-26.62238843 0.05994045 -25.15982089 0.06674938 -23.69726562 0.07543945 C-21.58722709 0.08765698 -19.47725513 0.09326295 -17.3671875 0.09765625 C-16.09987793 0.10289307 -14.83256836 0.10812988 -13.52685547 0.11352539 C-0.85078534 -0.29450262 -0.85078534 -0.29450262 0 0 Z " fill="#FEE3D1" transform="translate(477,652)"/>
<path d="M0 0 C3.67915862 1.63323032 6.63590578 3.92017366 9.8125 6.375 C17.47445855 12.20132921 24.86213024 15.91051242 33.9375 19 C34.618125 19.33 35.29875 19.66 36 20 C36.495 21.485 36.495 21.485 37 23 C24.24314937 19.32429728 7.65798998 11.48698496 0 0 Z " fill="#DD5729" transform="translate(345,539)"/>
<path d="M0 0 C0 4.36395312 -2.70302598 6.31462338 -5.5625 9.3125 C-6.1080957 9.89410889 -6.65369141 10.47571777 -7.21582031 11.07495117 C-10.93624977 14.99882439 -14.76397036 18.63043097 -19 22 C-19.66 21.67 -20.32 21.34 -21 21 C-15.01540335 13.60086232 -8.03200359 7.36956847 -1 1 C-0.67 0.67 -0.34 0.34 0 0 Z " fill="#E44F1B" transform="translate(554,624)"/>
<path d="M0 0 C1.64574566 -0.02688151 3.29161413 -0.04634123 4.9375 -0.0625 C5.85402344 -0.07410156 6.77054688 -0.08570313 7.71484375 -0.09765625 C10 0 10 0 11 1 C18.90906401 2.71877792 26.93786522 3.45680652 35 4 C35 5.32 35 6.64 35 8 C34.22269531 7.70351563 33.44539062 7.40703125 32.64453125 7.1015625 C28.031667 5.70732057 23.45276878 5.03599977 18.6875 4.375 C17.33881836 4.17390625 17.33881836 4.17390625 15.96289062 3.96875 C10.24946959 3.15903885 4.76961296 2.87061011 -1 3 C-0.67 2.01 -0.34 1.02 0 0 Z " fill="#E15B2C" transform="translate(643,513)"/>
<path d="M0 0 C-4.0349 1.9829327 -8.07344381 3.95818086 -12.11547852 5.92651367 C-13.48889169 6.59663314 -14.86130256 7.26881106 -16.23266602 7.94311523 C-18.20847336 8.91417761 -20.18781357 9.87768446 -22.16796875 10.83984375 C-22.77650192 11.14091537 -23.3850351 11.441987 -24.01200867 11.75218201 C-27.32106042 13.35026427 -30.35860696 14.46865081 -34 15 C-34 14.34 -34 13.68 -34 13 C-32.68 13 -31.36 13 -30 13 C-30 12.34 -30 11.68 -30 11 C-28.68 11 -27.36 11 -26 11 C-26 10.34 -26 9.68 -26 9 C-24.68 9 -23.36 9 -22 9 C-22 8.34 -22 7.68 -22 7 C-20.68 7 -19.36 7 -18 7 C-18 6.34 -18 5.68 -18 5 C-14.62902617 3.50178941 -12.79557881 3 -9 3 C-9 2.34 -9 1.68 -9 1 C-5.47051709 -0.66670026 -3.71727674 -1.13583456 0 0 Z " fill="#E05625" transform="translate(814,438)"/>
<path d="M0 0 C-1.31901168 7.40049964 -3.2177363 14.50979275 -5.4375 21.6875 C-5.73720703 22.68072266 -6.03691406 23.67394531 -6.34570312 24.69726562 C-7.95602515 29.95439066 -9.71284131 34.99902611 -12 40 C-13.15015977 36.5495207 -12.83330265 35.79205935 -11.671875 32.46484375 C-11.36636719 31.57216797 -11.06085937 30.67949219 -10.74609375 29.75976562 C-10.41738281 28.82841797 -10.08867188 27.89707031 -9.75 26.9375 C-5.07115391 15.22472153 -5.07115391 15.22472153 -3 3 C-4.65 3.33 -6.3 3.66 -8 4 C-2.7826087 0 -2.7826087 0 0 0 Z " fill="#DA5322" transform="translate(768,477)"/>
<path d="M0 0 C-3.0296652 2.44814179 -6.07549599 4.09452853 -9.625 5.6875 C-11.06746094 6.34298828 -11.06746094 6.34298828 -12.5390625 7.01171875 C-15 8 -15 8 -17 8 C-17 7.34 -17 6.68 -17 6 C-16.01 6 -15.02 6 -14 6 C-14 5.34 -14 4.68 -14 4 C-16.64 4 -19.28 4 -22 4 C-15.68598198 -0.20934535 -7.41145544 -0.27967756 0 0 Z " fill="#FEE1CE" transform="translate(537,513)"/>
<path d="M0 0 C-9.42150386 4.5288573 -18.00441805 4.48336 -28.1875 4.25 C-29.7271901 4.22988817 -31.2669058 4.21164574 -32.80664062 4.1953125 C-36.53830208 4.15172461 -40.26898158 4.08296116 -44 4 C-44 3.34 -44 2.68 -44 2 C-43.25016846 2.01571045 -42.50033691 2.0314209 -41.7277832 2.04760742 C-38.25610214 2.11083561 -34.78454287 2.14926565 -31.3125 2.1875 C-29.54422852 2.22520508 -29.54422852 2.22520508 -27.74023438 2.26367188 C-20.34871312 2.3244241 -13.85820569 1.5452464 -6.73120117 -0.44799805 C-4.01028503 -0.9979213 -2.57674161 -0.92898215 0 0 Z " fill="#DF5727" transform="translate(434,579)"/>
<path d="M0 0 C1.52040718 -0.05506505 3.04142704 -0.09326375 4.5625 -0.125 C5.83287109 -0.15980469 5.83287109 -0.15980469 7.12890625 -0.1953125 C10 0 10 0 13.34375 1.02734375 C17.37339683 2.09933313 20.84217302 2.05609906 24.9375 1.6875 C25.63681641 1.63408447 26.33613281 1.58066895 27.05664062 1.52563477 C31.72501413 1.15527568 36.36653251 0.67571401 41 0 C32.39745964 5.7350269 19.73521005 5.12238749 9.921875 3.32421875 C6.5941762 2.61354623 3.2939055 1.85265967 0 1 C0 0.67 0 0.34 0 0 Z " fill="#FED8C2" transform="translate(457,503)"/>
<path d="M0 0 C0.66 0 1.32 0 2 0 C5.46007306 5.99745997 5.15685804 12.59576309 5.125 19.3125 C5.12886719 20.11623047 5.13273437 20.91996094 5.13671875 21.74804688 C5.12788687 27.23705959 4.68823718 32.55418674 4 38 C4.99 38.33 5.98 38.66 7 39 C5.625 40.5 5.625 40.5 4 42 C3.34 42 2.68 42 2 42 C2.10828125 40.77990234 2.10828125 40.77990234 2.21875 39.53515625 C3.97601969 19.50096398 3.97601969 19.50096398 0 0 Z " fill="#FEE2D0" transform="translate(293,314)"/>
<path d="M0 0 C5.56292669 -0.08760514 10.9187197 0.1926141 16.4375 0.875 C17.17669678 0.96378418 17.91589355 1.05256836 18.67749023 1.14404297 C23.87448937 1.79416774 28.91995517 2.70689768 34 4 C34.33 3.34 34.66 2.68 35 2 C35 2.99 35 3.98 35 5 C23.01689433 5.8139468 11.68873718 3.36702043 0 1 C0 0.67 0 0.34 0 0 Z " fill="#E05C2E" transform="translate(462,697)"/>
<path d="M0 0 C1.31787014 4.35206448 0.50955241 8.11820027 -0.3125 12.5 C-0.44333984 13.25925781 -0.57417969 14.01851563 -0.70898438 14.80078125 C-1.41917481 18.71883667 -2.17236374 21.34472748 -4 25 C-4 21.7 -4 18.4 -4 15 C-3.34 15 -2.68 15 -2 15 C-2.33 11.7 -2.66 8.4 -3 5 C-4.65 5 -6.3 5 -8 5 C-5.44008376 2.98863724 -2.95409701 1.37154504 0 0 Z " fill="#DD5425" transform="translate(819,452)"/>
<path d="M0 0 C3.64647953 0.30524326 7.29203348 0.62040513 10.9375 0.9375 C11.97841797 1.02451172 13.01933594 1.11152344 14.09179688 1.20117188 C15.08115234 1.28818359 16.07050781 1.37519531 17.08984375 1.46484375 C18.00628662 1.543396 18.92272949 1.62194824 19.86694336 1.70288086 C22 2 22 2 23 3 C25.32817964 3.36760731 27.6618385 3.70241581 30 4 C30.33 3.01 30.66 2.02 31 1 C31.33 2.32 31.66 3.64 32 5 C21.65455628 5.39620848 12.00486992 4.88882337 2 2 C1.34 1.34 0.68 0.68 0 0 Z " fill="#E05E30" transform="translate(188,405)"/>
<path d="M0 0 C3.875 1.875 3.875 1.875 5 3 C5.07258946 5.18639453 5.08373783 7.37500389 5.0625 9.5625 C5.05347656 10.76003906 5.04445313 11.95757812 5.03515625 13.19140625 C5.02355469 14.11824219 5.01195312 15.04507812 5 16 C4.34 16.33 3.68 16.66 3 17 C2.90912109 15.71802734 2.90912109 15.71802734 2.81640625 14.41015625 C2.73261719 13.30542969 2.64882813 12.20070313 2.5625 11.0625 C2.48128906 9.96035156 2.40007812 8.85820312 2.31640625 7.72265625 C2.29581916 5.08890097 2.29581916 5.08890097 1 4 C-0.65 7.3 -2.3 10.6 -4 14 C-5.2077558 10.37673261 -4.54311128 9.35853631 -3 6 C-2.34 6 -1.68 6 -1 6 C-0.67 4.02 -0.34 2.04 0 0 Z " fill="#E05A29" transform="translate(306,370)"/>
<path d="M0 0 C4.875 4.75 4.875 4.75 6 7 C5.01 7 4.02 7 3 7 C3.80859647 9.813677 4.62167003 12.62592069 5.4375 15.4375 C5.78264648 16.64116211 5.78264648 16.64116211 6.13476562 17.86914062 C6.98705862 21.74053247 6.98705862 21.74053247 9 25 C9.04063832 26.66617115 9.042721 28.33388095 9 30 C3.28080474 21.4212071 0 10.30658658 0 0 Z " fill="#FDE0CE" transform="translate(236,350)"/>
<path d="M0 0 C3.63 0.33 7.26 0.66 11 1 C11 1.66 11 2.32 11 3 C12.670625 2.9690625 12.670625 2.9690625 14.375 2.9375 C18 3 18 3 20 4 C21.70363822 4.22622081 23.41328701 4.40888473 25.125 4.5625 C26.03507812 4.64628906 26.94515625 4.73007812 27.8828125 4.81640625 C28.58148438 4.87699219 29.28015625 4.93757812 30 5 C30 5.66 30 6.32 30 7 C23.63839844 7.27882452 18.3033799 6.32465124 12.1875 4.625 C11.34251953 4.40328125 10.49753906 4.1815625 9.62695312 3.953125 C5.91394587 2.9504066 3.24037569 2.16025046 0 0 Z " fill="#FCD8C3" transform="translate(343,530)"/>
<path d="M0 0 C4.95021409 0.79647029 9.58170153 2.45320707 14.3125 4.0625 C15.14845703 4.34416016 15.98441406 4.62582031 16.84570312 4.91601562 C18.89805624 5.60795182 20.94915483 6.30360709 23 7 C23 7.33 23 7.66 23 8 C18.30976546 7.43393721 13.65499974 6.81462495 9 6 C9.33 7.32 9.66 8.64 10 10 C2.51708428 3.84965831 2.51708428 3.84965831 0 0 Z " fill="#DF4B17" transform="translate(333,527)"/>
<path d="M0 0 C1.32 0 2.64 0 4 0 C4 0.66 4 1.32 4 2 C4.69480469 2.11601562 5.38960937 2.23203125 6.10546875 2.3515625 C9.33234644 3.07445278 12.2375588 4.15975378 15.3125 5.375 C16.446875 5.81972656 17.58125 6.26445312 18.75 6.72265625 C19.8225 7.14417969 20.895 7.56570313 22 8 C24.66290316 9.01047664 27.33101423 10.00567197 30 11 C26.40442662 12.79778669 22.65250221 11.14260213 19 10 C16.17634786 8.92584633 13.39818146 7.76036466 10.625 6.5625 C9.5719165 6.11197266 9.5719165 6.11197266 8.49755859 5.65234375 C5.16758011 4.17199574 2.31095451 2.88428292 0 0 Z " fill="#E15423" transform="translate(186,475)"/>
<path d="M0 0 C1.0354051 3.1848935 0.94040666 5.13031874 0.00390625 8.328125 C-0.22490234 9.12734375 -0.45371094 9.9265625 -0.68945312 10.75 C-0.93630859 11.575 -1.18316406 12.4 -1.4375 13.25 C-1.80198242 14.51070312 -1.80198242 14.51070312 -2.17382812 15.796875 C-2.77373949 17.86715734 -3.38570819 19.93393897 -4 22 C-4.66 22 -5.32 22 -6 22 C-5.9175 22.7425 -5.835 23.485 -5.75 24.25 C-6.07105184 27.78157027 -7.35265617 28.76630364 -10 31 C-7.92028538 23.90563736 -5.66940941 16.88176199 -3.3125 9.875 C-2.83200195 8.44027344 -2.83200195 8.44027344 -2.34179688 6.9765625 C-1.56258967 4.65057084 -0.78197326 2.32506289 0 0 Z " fill="#DE5E32" transform="translate(631,647)"/>
<path d="M0 0 C0.66 0.33 1.32 0.66 2 1 C-3.63468283 7.7116188 -9.75936424 13.86092974 -16 20 C-16.33 19.01 -16.66 18.02 -17 17 C-15.625 15.5 -15.625 15.5 -14 14 C-13.34 14 -12.68 14 -12 14 C-12 13.34 -12 12.68 -12 12 C-11.34 12 -10.68 12 -10 12 C-9.7525 11.38125 -9.505 10.7625 -9.25 10.125 C-7.76259631 7.59641373 -6.56321991 7.28160996 -4 6 C-2.73195434 3.9664052 -2.73195434 3.9664052 -2 2 C-1.34 2 -0.68 2 0 2 C0 1.34 0 0.68 0 0 Z " fill="#FDDDCB" transform="translate(561,614)"/>
<path d="M0 0 C-0.33 0.99 -0.66 1.98 -1 3 C-0.01 3.66 0.98 4.32 2 5 C-2.62197306 7.21854707 -5.76824163 8.38281159 -11 8 C-9.94434467 4.71573897 -8.38339648 3.42848444 -5.5 1.75 C-2 0 -2 0 0 0 Z " fill="#FEECE0" transform="translate(690,639)"/>
<path d="M0 0 C1.07174763 3.65188082 0.76411467 6.26432828 0 10 C-0.66 10 -1.32 10 -2 10 C-2 11.98 -2 13.96 -2 16 C-2.66 16 -3.32 16 -4 16 C-4 17.98 -4 19.96 -4 22 C-4.66 22 -5.32 22 -6 22 C-6 23.65 -6 25.3 -6 27 C-6.99 27.33 -7.98 27.66 -9 28 C-6.29895639 18.57004072 -3.12847689 9.29430999 0 0 Z " fill="#E2673C" transform="translate(841,480)"/>
<path d="M0 0 C0.33 0 0.66 0 1 0 C0.23649858 11.18924502 -2.12815229 22.17534326 -5 33 C-5.33 33 -5.66 33 -6 33 C-5.33333333 27 -4.66666667 21 -4 15 C-3.34 15 -2.68 15 -2 15 C-2.02320313 14.33613281 -2.04640625 13.67226563 -2.0703125 12.98828125 C-2.24956063 4.21792619 -2.24956063 4.21792619 0 0 Z " fill="#DD5323" transform="translate(871,446)"/>
<path d="M0 0 C3 1 3 1 4.171875 2.51171875 C5.42120964 6.26561577 5.28830283 9.88326814 5.25 13.8125 C5.25773437 14.59431641 5.26546875 15.37613281 5.2734375 16.18164062 C5.25679987 21.16045019 4.58814915 25.2796678 3 30 C2.34 30 1.68 30 1 30 C1.88577154 22.53421128 1.88577154 22.53421128 2.51953125 19.5703125 C3.81477619 12.6412786 3.93149679 6.06105755 0 0 Z " fill="#FDE7D7" transform="translate(340,345)"/>
<path d="M0 0 C0.99580078 0.63035156 0.99580078 0.63035156 2.01171875 1.2734375 C-1.34701552 3.51259368 -4.82722465 4.96376479 -8.55078125 6.4609375 C-9.23591797 6.74646484 -9.92105469 7.03199219 -10.62695312 7.32617188 C-12.39026255 8.03737911 -14.18788196 8.66217795 -15.98828125 9.2734375 C-16.64828125 8.9434375 -17.30828125 8.6134375 -17.98828125 8.2734375 C-15.60501268 6.70857436 -13.20999191 5.17240331 -10.80078125 3.6484375 C-10.12724609 3.20242188 -9.45371094 2.75640625 -8.75976562 2.296875 C-3.65710274 -0.88917792 -3.65710274 -0.88917792 0 0 Z " fill="#FDD3BC" transform="translate(667.98828125,619.7265625)"/>
<path d="M0 0 C0.66 0.33 1.32 0.66 2 1 C1.67 1.66 1.34 2.32 1 3 C2.32 3.66 3.64 4.32 5 5 C0.37802694 7.21854707 -2.76824163 8.38281159 -8 8 C-6.49776416 3.79373966 -3.71449966 2.26099979 0 0 Z " fill="#FEEBDE" transform="translate(674,613)"/>
<path d="M0 0 C0.33 0 0.66 0 1 0 C1 1.98 1 3.96 1 6 C0.34 6 -0.32 6 -1 6 C-0.92458984 7.06154297 -0.92458984 7.06154297 -0.84765625 8.14453125 C-1.02700418 11.50615527 -1.98139865 13.6639241 -3.4375 16.6875 C-3.88996094 17.64011719 -4.34242188 18.59273437 -4.80859375 19.57421875 C-5.53430929 21.05182318 -6.26379651 22.52759302 -7 24 C-7.66 24 -8.32 24 -9 24 C-6.41874331 15.82602049 -3.22988119 7.93359166 0 0 Z " fill="#E15323" transform="translate(794,494)"/>
<path d="M0 0 C4.35990873 -0.07418046 8.71948279 -0.12861544 13.07983398 -0.16479492 C14.56297199 -0.17987768 16.04606544 -0.20034689 17.52905273 -0.22631836 C19.66140745 -0.26272616 21.79317235 -0.27973073 23.92578125 -0.29296875 C25.85031128 -0.31653442 25.85031128 -0.31653442 27.8137207 -0.34057617 C31 0 31 0 32.94213867 1.51831055 C33.29123291 2.00726807 33.64032715 2.49622559 34 3 C32.43765625 2.75443359 32.43765625 2.75443359 30.84375 2.50390625 C24.74531601 1.741602 18.63537364 1.8936759 12.5 1.9375 C11.29601562 1.94201172 10.09203125 1.94652344 8.8515625 1.95117188 C5.90098927 1.9628805 2.95052141 1.97928005 0 2 C0 1.34 0 0.68 0 0 Z " fill="#FFEFDF" transform="translate(808,393)"/>
<path d="M0 0 C0.33 0 0.66 0 1 0 C1 2.31 1 4.62 1 7 C2.65 6.67 4.3 6.34 6 6 C6 5.34 6 4.68 6 4 C7.65 4 9.3 4 11 4 C11 3.34 11 2.68 11 2 C12.65 2 14.3 2 16 2 C12.7141754 4.75167577 9.36372513 6.21933799 5.375 7.75 C4.22773438 8.19859375 3.08046875 8.6471875 1.8984375 9.109375 C-1 10 -1 10 -3 9 C-2.01 6.03 -1.02 3.06 0 0 Z " fill="#DD5C2E" transform="translate(308,387)"/>
<path d="M0 0 C0.33 0.66 0.66 1.32 1 2 C-2.96 7.94 -2.96 7.94 -7 14 C-2.545 13.505 -2.545 13.505 2 13 C-1.47369066 14.73684533 -3.07619937 15.30084112 -6.75 15.625 C-7.54921875 15.69976563 -8.3484375 15.77453125 -9.171875 15.8515625 C-10.07679688 15.92503906 -10.07679688 15.92503906 -11 16 C-9.92044741 14.26847042 -8.83617488 12.53988316 -7.75 10.8125 C-7.14671875 9.84957031 -6.5434375 8.88664063 -5.921875 7.89453125 C-4.08362455 5.12594673 -2.11574051 2.56042049 0 0 Z " fill="#D75327" transform="translate(480,773)"/>
<path d="M0 0 C2.30821663 3.46232494 2.27000989 4.91798316 2.25 9 C2.25773437 10.5778125 2.25773437 10.5778125 2.265625 12.1875 C2 15 2 15 0 18 C-0.33 15.03 -0.66 12.06 -1 9 C-1.66 9 -2.32 9 -3 9 C-2.01 6.03 -1.02 3.06 0 0 Z " fill="#FEEBDB" transform="translate(307,372)"/>
<path d="M0 0 C0.33 0.66 0.66 1.32 1 2 C-0.21484375 4.6015625 -0.21484375 4.6015625 -1.9375 7.625 C-2.50339844 8.62789062 -3.06929688 9.63078125 -3.65234375 10.6640625 C-4.09707031 11.43492187 -4.54179687 12.20578125 -5 13 C-5.33 12.01 -5.66 11.02 -6 10 C-7.65 10.66 -9.3 11.32 -11 12 C-7.49102731 7.81576108 -3.91939465 3.80411834 0 0 Z " fill="#FEE1CE" transform="translate(513,565)"/>
<path d="M0 0 C2.60608273 2.5162178 4.89381685 5.05134359 7 8 C6.67 8.66 6.34 9.32 6 10 C4.68 8.68 3.36 7.36 2 6 C1.67 6.99 1.34 7.98 1 9 C0.34 9 -0.32 9 -1 9 C-1.33 10.32 -1.66 11.64 -2 13 C-2.16682272 8.07872966 -2.24828052 4.49656104 0 0 Z " fill="#DE592A" transform="translate(152,386)"/>
<path d="M0 0 C4.71370756 0.64985095 8.57686444 2.51561392 12.8125 4.5625 C13.50537109 4.89185547 14.19824219 5.22121094 14.91210938 5.56054688 C16.61044948 6.36872251 18.30555769 7.18368377 20 8 C20 8.66 20 9.32 20 10 C12.755702 7.86233829 6.53281715 4.77315981 0 1 C0 0.67 0 0.34 0 0 Z " fill="#E05728" transform="translate(391,671)"/>
<path d="M0 0 C4.47238653 1.41807378 8.71146306 3.11304374 13 5 C13 6.65 13 8.3 13 10 C9.74035658 8.51222697 7.06830707 6.64333184 4.25 4.4375 C3.45078125 3.81746094 2.6515625 3.19742188 1.828125 2.55859375 C1.22484375 2.04425781 0.6215625 1.52992188 0 1 C0 0.67 0 0.34 0 0 Z " fill="#FED5BB" transform="translate(375,632)"/>
<path d="M0 0 C1.81293089 0.14037521 3.6253443 0.28744889 5.4375 0.4375 C6.95150391 0.55931641 6.95150391 0.55931641 8.49609375 0.68359375 C11 1 11 1 12 2 C13.03125 2.12375 14.0625 2.2475 15.125 2.375 C19.2773813 3.04473892 22.21955594 4.22550585 26 6 C22.51664404 7.19784792 20.30493975 6.78454679 16.796875 5.78515625 C15.8171875 5.51123047 14.8375 5.23730469 13.828125 4.95507812 C12.81234375 4.66052734 11.7965625 4.36597656 10.75 4.0625 C9.71875 3.77181641 8.6875 3.48113281 7.625 3.18164062 C5.0807248 2.46311846 2.53937099 1.73563156 0 1 C0 0.67 0 0.34 0 0 Z " fill="#DD5B2D" transform="translate(435,690)"/>
<path d="M0 0 C1.13199353 0.9080162 2.25532363 1.82683826 3.375 2.75 C4.00148438 3.26046875 4.62796875 3.7709375 5.2734375 4.296875 C7.08312318 6.08199481 8.00117455 7.67949644 9 10 C8.34 10 7.68 10 7 10 C7 9.34 7 8.68 7 8 C6.34 8 5.68 8 5 8 C5 9.65 5 11.3 5 13 C2.94876752 10.94876752 2.35852882 9.72994937 1.375 7.0625 C0.98441406 6.02802734 0.98441406 6.02802734 0.5859375 4.97265625 C0 3 0 3 0 0 Z " fill="#FEE4D5" transform="translate(290,471)"/>
<path d="M0 0 C0.33 0 0.66 0 1 0 C1.13809296 8.69985646 0.65534014 16.67993424 -2 25 C-2.66 25 -3.32 25 -4 25 C-3.33182164 19.29129167 -2.46165521 13.65490487 -1.4375 8 C-1.29892578 7.22527344 -1.16035156 6.45054687 -1.01757812 5.65234375 C-0.68023879 3.76789645 -0.34038635 1.8838993 0 0 Z " fill="#FCD9C6" transform="translate(819,456)"/>
<path d="M0 0 C2.475 0.99 2.475 0.99 5 2 C4.01 2.33 3.02 2.66 2 3 C2.20496094 3.86882812 2.40992188 4.73765625 2.62109375 5.6328125 C2.89050781 6.78523438 3.15992188 7.93765625 3.4375 9.125 C3.83775391 10.83042969 3.83775391 10.83042969 4.24609375 12.5703125 C4.9350687 15.70461304 5.50381194 18.83017726 6 22 C0.68336182 16.68336182 0.44114855 7.14964888 0 0 Z " fill="#FEDFCD" transform="translate(213,384)"/>
<path d="M0 0 C-0.33 0.99 -0.66 1.98 -1 3 C-1.60585938 2.98839844 -2.21171875 2.97679687 -2.8359375 2.96484375 C-8.95924948 2.89890039 -14.92093331 3.27568567 -21 4 C-13.80271636 0.36315604 -8.00285335 -0.25631915 0 0 Z " fill="#E25D2D" transform="translate(540,511)"/>
<path d="M0 0 C0.33 0 0.66 0 1 0 C0.67 5.61 0.34 11.22 0 17 C-0.33 17 -0.66 17 -1 17 C-1.33 13.7 -1.66 10.4 -2 7 C-2.66 7 -3.32 7 -4 7 C-2.92598892 4.08482708 -2.22189824 2.22189824 0 0 Z " fill="#DC6C43" transform="translate(231,235)"/>
<path d="M0 0 C1.32 0.33 2.64 0.66 4 1 C3.01 1 2.02 1 1 1 C0.87625 2.299375 0.7525 3.59875 0.625 4.9375 C0.10136672 9.71849952 -0.86313835 14.33114101 -2 19 C-2.33 19 -2.66 19 -3 19 C-3.35368021 11.87399867 -2.95671348 6.52940894 0 0 Z " fill="#DF5927" transform="translate(628,591)"/>
<path d="M0 0 C0.33 0 0.66 0 1 0 C1 1.98 1 3.96 1 6 C0.34 6 -0.32 6 -1 6 C-0.938125 7.03125 -0.87625 8.0625 -0.8125 9.125 C-1.01135595 13.23468973 -1.94467803 15.48882496 -4 19 C-5.79341438 14.83326479 -4.01173384 11.25336659 -2.5625 7.25 C-2.19801758 6.20392578 -2.19801758 6.20392578 -1.82617188 5.13671875 C-1.22689752 3.42114902 -0.61470115 1.71010285 0 0 Z " fill="#E16032" transform="translate(522,662)"/>
<path d="M0 0 C6.63093294 0.34773428 12.053928 0.96089654 18 4 C18 4.66 18 5.32 18 6 C5.33029613 2.92482916 5.33029613 2.92482916 0 1 C0 0.67 0 0.34 0 0 Z " fill="#E25E31" transform="translate(401,642)"/>
<path d="M0 0 C-3.12936175 2.76852718 -5.05053813 3.36539759 -9.203125 3.29296875 C-10.67265625 3.2784668 -10.67265625 3.2784668 -12.171875 3.26367188 C-13.69554687 3.2259668 -13.69554687 3.2259668 -15.25 3.1875 C-16.28125 3.17396484 -17.3125 3.16042969 -18.375 3.14648438 C-20.91719792 3.11117607 -23.45833223 3.06186036 -26 3 C-26 2.67 -26 2.34 -26 2 C-24.85402344 1.95101562 -23.70804687 1.90203125 -22.52734375 1.8515625 C-20.99737465 1.77647199 -19.46742782 1.70092694 -17.9375 1.625 C-17.18533203 1.5940625 -16.43316406 1.563125 -15.65820312 1.53125 C-11.9594176 1.3391053 -8.61508571 0.99331138 -5.06640625 -0.1015625 C-2 -1 -2 -1 0 0 Z " fill="#E97147" transform="translate(471,618)"/>
<path d="M0 0 C0.33 0.99 0.66 1.98 1 3 C-0.21929728 4.30098717 -1.45092452 5.59042437 -2.6875 6.875 C-3.37199219 7.59429688 -4.05648437 8.31359375 -4.76171875 9.0546875 C-7.09591291 11.08335887 -9.08467634 12.02992733 -12 13 C-8.19524578 8.43969176 -4.25030379 4.14910608 0 0 Z " fill="#FEDDCC" transform="translate(802,594)"/>
<path d="M0 0 C2.1519437 3.22791555 2.20086443 4.28400809 2 8 C2.66 8 3.32 8 4 8 C4 7.01 4 6.02 4 5 C4.66 5 5.32 5 6 5 C5.54738642 6.43931117 5.08767021 7.87638999 4.625 9.3125 C4.36976563 10.11300781 4.11453125 10.91351563 3.8515625 11.73828125 C3 14 3 14 1 17 C0.67 11.39 0.34 5.78 0 0 Z " fill="#D65526" transform="translate(273,399)"/>
<path d="M0 0 C3 3 3 3 3.328125 5.5234375 C3.30234375 6.46445312 3.2765625 7.40546875 3.25 8.375 C3.23453125 9.31085938 3.2190625 10.24671875 3.203125 11.2109375 C3.00840527 13.88458912 2.58897928 16.3875919 2 19 C1.67 19 1.34 19 1 19 C0.67 12.73 0.34 6.46 0 0 Z " fill="#E26031" transform="translate(341,348)"/>
<path d="M0 0 C3.38502968 5.07754451 2.45145946 11.06559811 2 17 C1.26432704 19.93843938 0.31704404 22.25615826 -1 25 C-2 22 -2 22 -1.0703125 18.80859375 C0.08327792 14.70366432 0.20024798 11.314011 0.125 7.0625 C0.11146484 6.03672852 0.11146484 6.03672852 0.09765625 4.99023438 C0.07438958 3.32666713 0.03853167 1.66328369 0 0 Z " fill="#FDDFCC" transform="translate(262,293)"/>
<path d="M0 0 C0.66 0 1.32 0 2 0 C0.68 5.94 -0.64 11.88 -2 18 C-3.32 16.68 -4.64 15.36 -6 14 C-5.54625 13.649375 -5.0925 13.29875 -4.625 12.9375 C-2.33704212 10.20955022 -1.8418149 7.42738925 -1 4 C-0.79375 3.195625 -0.5875 2.39125 -0.375 1.5625 C-0.189375 0.7890625 -0.189375 0.7890625 0 0 Z " fill="#FDDEC9" transform="translate(279,432)"/>
<path d="M0 0 C-2.34882224 2.34882224 -4.27123667 3.03503024 -7.375 4.1875 C-8.33148437 4.55230469 -9.28796875 4.91710937 -10.2734375 5.29296875 C-13.05285296 6.01370542 -14.35108103 5.98549829 -17 5 C-14.73392948 3.96724659 -12.46318061 2.94866449 -10.1875 1.9375 C-9.22360352 1.49567383 -9.22360352 1.49567383 -8.24023438 1.04492188 C-3.33984375 -1.11328125 -3.33984375 -1.11328125 0 0 Z " fill="#FDBB9B" transform="translate(666,653)"/>
<path d="M0 0 C3 3.75 3 3.75 3 6 C2.01 6.33 1.02 6.66 0 7 C-0.33 9.64 -0.66 12.28 -1 15 C-1.66 15 -2.32 15 -3 15 C-2.5547115 9.72684667 -1.91626837 4.98229776 0 0 Z " fill="#D85426" transform="translate(360,354)"/>
<path d="M0 0 C1.13757948 4.55031791 0.4283779 6.63084406 -1 11 C0.32 11.33 1.64 11.66 3 12 C0.69 13.32 -1.62 14.64 -4 16 C-2.68 10.72 -1.36 5.44 0 0 Z " fill="#D96038" transform="translate(632,774)"/>
<path d="M0 0 C0.33 0 0.66 0 1 0 C1.37634203 6.80203375 0.77471079 11.75690073 -2 18 C-3.51553092 14.02549507 -2.49888623 10.79518851 -1.5625 6.75 C-1.27503906 5.48671875 -0.98757813 4.2234375 -0.69140625 2.921875 C-0.46324219 1.95765625 -0.23507812 0.9934375 0 0 Z " fill="#DE5528" transform="translate(636,756)"/>
<path d="M0 0 C5.3651458 4.13882676 9.86117324 8.6348542 14 14 C10.62510066 12.50176093 8.08483343 10.55365573 5.3125 8.125 C4.52488281 7.44695313 3.73726563 6.76890625 2.92578125 6.0703125 C0.96155364 3.95866821 0.37225432 2.81399025 0 0 Z " fill="#DC582A" transform="translate(327,543)"/>
<path d="M0 0 C6.96109408 0.46729567 12.71494841 1.85747421 19 5 C19 5.66 19 6.32 19 7 C18.46632812 6.81824219 17.93265625 6.63648438 17.3828125 6.44921875 C11.62408217 4.5063945 5.83006078 2.71615568 0 1 C0 0.67 0 0.34 0 0 Z " fill="#DF663A" transform="translate(231,492)"/>
<path d="M0 0 C1.66611905 -0.042721 3.33382885 -0.04063832 5 0 C5.33 0.33 5.66 0.66 6 1 C7.51165654 1.39148761 9.03469632 1.73972457 10.5625 2.0625 C11.38878906 2.23910156 12.21507812 2.41570312 13.06640625 2.59765625 C13.70449219 2.73042969 14.34257812 2.86320312 15 3 C15 3.66 15 4.32 15 5 C9.33895411 4.50341703 5.12325529 3.45489316 0 1 C0 0.67 0 0.34 0 0 Z " fill="#FCDDCB" transform="translate(181,415)"/>
<path d="M0 0 C2.97 1.98 2.97 1.98 6 4 C5.01 4.495 5.01 4.495 4 5 C4.350625 6.2375 4.70125 7.475 5.0625 8.75 C5.95593273 11.903292 6.00881294 13.86774164 5 17 C4.16301614 14.54285453 3.33027576 12.08441143 2.5 9.625 C2.26152344 8.92632812 2.02304687 8.22765625 1.77734375 7.5078125 C0 2.2265625 0 2.2265625 0 0 Z " fill="#D4582A" transform="translate(258,279)"/>
<path d="M0 0 C0.33 0 0.66 0 1 0 C0.59060025 6.76215448 -0.56953809 12.67162748 -3 19 C-3.33 19 -3.66 19 -4 19 C-3.66666667 16.66666667 -3.33333333 14.33333333 -3 12 C-2.855625 10.80375 -2.71125 9.6075 -2.5625 8.375 C-2.04994182 5.29965092 -1.28438391 2.8256446 0 0 Z " fill="#FFECDD" transform="translate(843,467)"/>
<path d="M0 0 C4.97912521 0.64246777 9.616932 2.60017971 14 5 C14.33 5.66 14.66 6.32 15 7 C4.11971831 4.02112676 4.11971831 4.02112676 0 1 C0 0.67 0 0.34 0 0 Z " fill="#FDDFCE" transform="translate(360,569)"/>
<path d="M0 0 C0.33 0 0.66 0 1 0 C1.2358396 5.77807024 0.86783046 10.51324804 -1 16 C-1.66 16 -2.32 16 -3 16 C-2.40984815 10.49191603 -1.43336231 5.35121931 0 0 Z " fill="#FAD5C1" transform="translate(624,615)"/>
<path d="M0 0 C0.66 0.33 1.32 0.66 2 1 C0.37660195 2.70884005 -1.29319053 4.37446717 -3 6 C-3.66 6 -4.32 6 -5 6 C-5.2475 6.639375 -5.495 7.27875 -5.75 7.9375 C-7 10 -7 10 -9.125 10.75 C-10.053125 10.87375 -10.053125 10.87375 -11 11 C-7.6381774 6.74828319 -4.25171681 3.3618226 0 0 Z " fill="#FDDDCB" transform="translate(739,475)"/>
<path d="M0 0 C5 7.5 5 7.5 10 15 C5.93078733 13.4928842 3.20139944 10.66624042 1 7 C0.1875 3.125 0.1875 3.125 0 0 Z " fill="#DF5C2D" transform="translate(228,286)"/>
<path d="M0 0 C0.66 0 1.32 0 2 0 C2 0.66 2 1.32 2 2 C1.34 2 0.68 2 0 2 C0.03480469 2.61488281 0.06960938 3.22976563 0.10546875 3.86328125 C0.13253906 4.67152344 0.15960937 5.47976563 0.1875 6.3125 C0.23970703 7.51326172 0.23970703 7.51326172 0.29296875 8.73828125 C-0.06198392 11.47851584 -0.89366282 12.29171079 -3 14 C-2.88512252 12.41590006 -2.75765492 10.83271037 -2.625 9.25 C-2.55539062 8.36828125 -2.48578125 7.4865625 -2.4140625 6.578125 C-2.00149945 4.00933618 -1.28839043 2.24158985 0 0 Z " fill="#DF5829" transform="translate(643,603)"/>
<path d="M0 0 C2.475 0.99 2.475 0.99 5 2 C4.67 2.99 4.34 3.98 4 5 C4 5.99 4 6.98 4 8 C4 8.66 4 9.32 4 10 C3.34 10 2.68 10 2 10 C0.68373308 6.38026598 0 3.90432869 0 0 Z " fill="#E75825" transform="translate(288,468)"/>
<path d="M0 0 C2.02225194 3.0333779 2.99347524 5.61344489 4.125 9.0625 C4.47820312 10.12597656 4.83140625 11.18945312 5.1953125 12.28515625 C6 15 6 15 6 17 C5.34 17 4.68 17 4 17 C2.48300584 14.19547298 1.54691437 11.6142698 0.875 8.5 C0.70742187 7.7471875 0.53984375 6.994375 0.3671875 6.21875 C0 4 0 4 0 0 Z " fill="#FCD9C6" transform="translate(151,425)"/>
<path d="M0 0 C-5.01989102 4.11888494 -8.59858988 4.51211281 -15 4 C-12.18438333 2.52790818 -9.38026161 1.34273182 -6.375 0.3125 C-5.59898437 0.04050781 -4.82296875 -0.23148438 -4.0234375 -0.51171875 C-2 -1 -2 -1 0 0 Z " fill="#FBD8C5" transform="translate(493,647)"/>
<path d="M0 0 C0.66 0.33 1.32 0.66 2 1 C1.38125 1.70125 0.7625 2.4025 0.125 3.125 C-2.0427009 6.05777181 -3.02655555 8.51182406 -4 12 C-4.66 11.67 -5.32 11.34 -6 11 C-5.57576756 9.53775201 -5.13509755 8.08026588 -4.6875 6.625 C-4.44386719 5.81289063 -4.20023438 5.00078125 -3.94921875 4.1640625 C-3 2 -3 2 0 0 Z " fill="#E15323" transform="translate(672,522)"/>
<path d="M0 0 C3.91939465 3.80411834 7.49102731 7.81576108 11 12 C10.01 12 9.02 12 8 12 C5.95703125 9.8828125 5.95703125 9.8828125 3.8125 7.125 C3.09707031 6.22007812 2.38164062 5.31515625 1.64453125 4.3828125 C0 2 0 2 0 0 Z " fill="#DC5B2D" transform="translate(159,396)"/>
<path d="M0 0 C0.33 1.32 0.66 2.64 1 4 C0.34 4 -0.32 4 -1 4 C-1.33 5.65 -1.66 7.3 -2 9 C-2.66 9 -3.32 9 -4 9 C-4.66 10.32 -5.32 11.64 -6 13 C-6 9.32965255 -4.9247108 7.9000569 -3 4.8125 C-2.443125 3.91144531 -1.88625 3.01039063 -1.3125 2.08203125 C-0.6628125 1.05142578 -0.6628125 1.05142578 0 0 Z " fill="#DE5525" transform="translate(506,580)"/>
<path d="M0 0 C-3.96 1.98 -7.92 3.96 -12 6 C-12 5.01 -12 4.02 -12 3 C-10.75823305 2.29773859 -9.50614401 1.61370891 -8.25 0.9375 C-7.20585938 0.36322266 -7.20585938 0.36322266 -6.140625 -0.22265625 C-4 -1 -4 -1 0 0 Z " fill="#FEE6D6" transform="translate(621,438)"/>
<path d="M0 0 C-0.66 0 -1.32 0 -2 0 C-2 0.66 -2 1.32 -2 2 C-3.98 2 -5.96 2 -8 2 C-8 3.98 -8 5.96 -8 8 C-8.33 8 -8.66 8 -9 8 C-9 5.69 -9 3.38 -9 1 C-5.57367167 -0.61798838 -3.61944899 -1.34053666 0 0 Z " fill="#D9582E" transform="translate(646,703)"/>
<path d="M0 0 C-0.11458693 1.43836751 -0.24209116 2.87570966 -0.375 4.3125 C-0.44460938 5.11300781 -0.51421875 5.91351562 -0.5859375 6.73828125 C-1 9 -1 9 -3 12 C-2.67 8.7 -2.34 5.4 -2 2 C-2.99 1.67 -3.98 1.34 -5 1 C-3 0 -3 0 0 0 Z " fill="#D8623A" transform="translate(715,676)"/>
<path d="M0 0 C0.99 0.33 1.98 0.66 3 1 C0.36 3.64 -2.28 6.28 -5 9 C-5.33 8.01 -5.66 7.02 -6 6 C-5.34 6 -4.68 6 -4 6 C-3.34 4.68 -2.68 3.36 -2 2 C-1.34 2 -0.68 2 0 2 C0 1.34 0 0.68 0 0 Z " fill="#FEDCC9" transform="translate(481,546)"/>
<path d="M0 0 C0.66 0 1.32 0 2 0 C1.01 3.96 0.02 7.92 -1 12 C-1.33 12 -1.66 12 -2 12 C-2.28571429 3.42857143 -2.28571429 3.42857143 0 0 Z " fill="#E15B2B" transform="translate(813,481)"/>
<path d="M0 0 C-0.66 3.3 -1.32 6.6 -2 10 C-3 6 -3 6 -3 3 C-4.65 3.33 -6.3 3.66 -8 4 C-2.7826087 0 -2.7826087 0 0 0 Z " fill="#D55D34" transform="translate(768,477)"/>
<path d="M0 0 C4.44870215 -0.39253254 7.14243493 0.84694043 11 3 C11 3.66 11 4.32 11 5 C9.53932801 4.54917531 8.08151968 4.08906463 6.625 3.625 C5.81289063 3.36976563 5.00078125 3.11453125 4.1640625 2.8515625 C2 2 2 2 0 0 Z " fill="#E15828" transform="translate(379,633)"/>
<path d="M0 0 C0.33 0 0.66 0 1 0 C1 1.65 1 3.3 1 5 C0.34 5 -0.32 5 -1 5 C-1 6.65 -1 8.3 -1 10 C-1.99 10.33 -2.98 10.66 -4 11 C-3.5247412 9.35303396 -3.04468109 7.70745272 -2.5625 6.0625 C-2.29566406 5.14597656 -2.02882813 4.22945313 -1.75390625 3.28515625 C-1 1 -1 1 0 0 Z " fill="#E15828" transform="translate(836,497)"/>
<path d="M0 0 C0.33 0 0.66 0 1 0 C1.10884119 1.41493551 1.18597617 2.83232943 1.25 4.25 C1.29640625 5.03890625 1.3428125 5.8278125 1.390625 6.640625 C1 9 1 9 -3 13 C-2.01 8.71 -1.02 4.42 0 0 Z " fill="#FCD7C4" transform="translate(866,475)"/>
<path d="M0 0 C1.77007714 -0.08114106 3.54122098 -0.13925505 5.3125 -0.1875 C6.29863281 -0.22230469 7.28476562 -0.25710938 8.30078125 -0.29296875 C11 0 11 0 12.85546875 1.51171875 C13.23316406 2.00285156 13.61085938 2.49398438 14 3 C9.30976546 2.43393721 4.65499974 1.81462495 0 1 C0 0.67 0 0.34 0 0 Z " fill="#FDE5D4" transform="translate(828,393)"/>
<path d="M0 0 C2.9375 0.375 2.9375 0.375 6 1 C6.33 1.66 6.66 2.32 7 3 C6.01 3 5.02 3 4 3 C4.33 3.66 4.66 4.32 5 5 C3.68 4.67 2.36 4.34 1 4 C0.67 2.68 0.34 1.36 0 0 Z " fill="#E8571F" transform="translate(372,630)"/>
<path d="M0 0 C-1.32 0.33 -2.64 0.66 -4 1 C-4 1.99 -4 2.98 -4 4 C-3.34 4 -2.68 4 -2 4 C-2.33 4.66 -2.66 5.32 -3 6 C-5.5 4.625 -5.5 4.625 -8 3 C-8 2.34 -8 1.68 -8 1 C-2.25 -1.125 -2.25 -1.125 0 0 Z " fill="#FED7C1" transform="translate(414,599)"/>
<path d="M0 0 C0.66 0.33 1.32 0.66 2 1 C-0.71182212 3.60334924 -1.89133813 3.99456691 -5.75 4.1875 C-6.8225 4.125625 -7.895 4.06375 -9 4 C-9 3.01 -9 2.02 -9 1 C-8.443125 1.20625 -7.88625 1.4125 -7.3125 1.625 C-4.34503413 2.10621068 -2.72662502 1.14805264 0 0 Z " fill="#E35927" transform="translate(634,531)"/>
<path d="M0 0 C3.55780196 0.60990891 6.6828589 1.5783681 10 3 C10 3.33 10 3.66 10 4 C8.02 4.33 6.04 4.66 4 5 C2.68 3.35 1.36 1.7 0 0 Z " fill="#CD5933" transform="translate(333,527)"/>
<path d="M0 0 C0.66 0.33 1.32 0.66 2 1 C0.92892883 1.86949317 -0.15745944 2.72014205 -1.25 3.5625 C-1.85328125 4.03816406 -2.4565625 4.51382812 -3.078125 5.00390625 C-5 6 -5 6 -7.234375 5.65234375 C-7.81703125 5.43707031 -8.3996875 5.22179687 -9 5 C-7.54735962 4.1361871 -6.0876837 3.28419546 -4.625 2.4375 C-3.40683594 1.72400391 -3.40683594 1.72400391 -2.1640625 0.99609375 C-1.44992187 0.66738281 -0.73578125 0.33867187 0 0 Z " fill="#DE5727" transform="translate(527,489)"/>
<path d="M0 0 C0.66 0.33 1.32 0.66 2 1 C0.93106782 2.03590338 -0.15578488 3.05333942 -1.25 4.0625 C-2.15492188 4.91521484 -2.15492188 4.91521484 -3.078125 5.78515625 C-4.02945312 6.38650391 -4.02945312 6.38650391 -5 7 C-6.32 6.67 -7.64 6.34 -9 6 C-6.03 4.02 -3.06 2.04 0 0 Z " fill="#FEE6D7" transform="translate(335,382)"/>
<path d="M0 0 C2.15377564 2.62198774 3.40072174 4.64404172 4 8 C2.35 7.67 0.7 7.34 -1 7 C-0.67 4.69 -0.34 2.38 0 0 Z " fill="#D55E36" transform="translate(315,307)"/>
<path d="M0 0 C3.91402949 1.26941497 5.79072873 2.51167694 8 6 C5.69 5.67 3.38 5.34 1 5 C0.67 3.35 0.34 1.7 0 0 Z " fill="#E64812" transform="translate(261,283)"/>
<path d="M0 0 C0.33 0 0.66 0 1 0 C1 1.65 1 3.3 1 5 C2.32 5.33 3.64 5.66 5 6 C2.69 6.33 0.38 6.66 -2 7 C-1.125 2.25 -1.125 2.25 0 0 Z " fill="#D9582B" transform="translate(616,688)"/>
<path d="M0 0 C-3.69172595 3.53790403 -7.09390595 3.59115883 -12 4 C-9.94577945 1.94577945 -8.66990976 1.31862408 -6 0.3125 C-5.29875 0.04050781 -4.5975 -0.23148438 -3.875 -0.51171875 C-2 -1 -2 -1 0 0 Z " fill="#E34E1B" transform="translate(662,626)"/>
<path d="M0 0 C1.60517097 0.08733576 3.20921662 0.19552224 4.8125 0.3125 C6.15248047 0.39951172 6.15248047 0.39951172 7.51953125 0.48828125 C10.30604 1.06313581 11.24135754 1.8206856 13 4 C8.51474352 3.343621 4.33085971 2.29925791 0 1 C0 0.67 0 0.34 0 0 Z " fill="#FDDDCB" transform="translate(432,616)"/>
<path d="M0 0 C0.95465783 2.16967689 1.14401212 3.56328793 0.3984375 5.82421875 C-0.35870385 7.5684743 -1.17609198 9.28627131 -2 11 C-2.66 11 -3.32 11 -4 11 C-2.7874262 7.27566618 -1.49140021 3.62197194 0 0 Z " fill="#DF592D" transform="translate(831,508)"/>
<path d="M0 0 C2.64 0 5.28 0 8 0 C8 0.66 8 1.32 8 2 C8.99 2.33 9.98 2.66 11 3 C9 4 9 4 6.8359375 3.44140625 C6.02382813 3.15136719 5.21171875 2.86132812 4.375 2.5625 C3.55773437 2.27503906 2.74046875 1.98757813 1.8984375 1.69140625 C1.27195312 1.46324219 0.64546875 1.23507812 0 1 C0 0.67 0 0.34 0 0 Z " fill="#FCD6C3" transform="translate(433,495)"/>
<path d="M0 0 C1.98 1.65 3.96 3.3 6 5 C5.01 5.33 4.02 5.66 3 6 C2.67 6.66 2.34 7.32 2 8 C0.74335022 5.09399739 0 3.20395416 0 0 Z " fill="#FDDCC7" transform="translate(290,471)"/>
<path d="M0 0 C0.33 0 0.66 0 1 0 C1.36923077 5.41538462 1.36923077 5.41538462 -0.5 8.375 C-0.995 8.91125 -1.49 9.4475 -2 10 C-1.85950482 8.52031676 -1.71245174 7.04125484 -1.5625 5.5625 C-1.48128906 4.73878906 -1.40007812 3.91507813 -1.31640625 3.06640625 C-1 1 -1 1 0 0 Z " fill="#E3511F" transform="translate(510,719)"/>
<path d="M0 0 C0.33 1.32 0.66 2.64 1 4 C-0.9375 6.75 -0.9375 6.75 -3 9 C-3.66 8.67 -4.32 8.34 -5 8 C-3.35 5.36 -1.7 2.72 0 0 Z " fill="#FDE2D2" transform="translate(594,699)"/>
<path d="M0 0 C0.33 0.66 0.66 1.32 1 2 C-1.20927127 5.48832306 -3.08597051 6.73058503 -7 8 C-6.02133662 6.85373678 -5.04205413 5.70800212 -4.0625 4.5625 C-3.51722656 3.92441406 -2.97195313 3.28632812 -2.41015625 2.62890625 C-1.63204305 1.73008851 -0.84063472 0.84063472 0 0 Z " fill="#FBB391" transform="translate(513,565)"/>
<path d="M0 0 C0.33 0 0.66 0 1 0 C1.25 3.25 1.25 3.25 1 7 C-0.32 8.32 -1.64 9.64 -3 11 C-2.01 7.37 -1.02 3.74 0 0 Z " fill="#FDDDCB" transform="translate(762,498)"/>
<path d="M0 0 C0.99 0.495 0.99 0.495 2 1 C1.01 1.495 1.01 1.495 0 2 C0 1.34 0 0.68 0 0 Z M-6 5 C-5.01 5.33 -4.02 5.66 -3 6 C-4.485 7.485 -4.485 7.485 -6 9 C-6.99 8.67 -7.98 8.34 -9 8 C-8.01 7.01 -7.02 6.02 -6 5 Z " fill="#FEF7EF" transform="translate(734,481)"/>
<path d="M0 0 C0.33 0.66 0.66 1.32 1 2 C0.22265625 3.9453125 0.22265625 3.9453125 -0.9375 6.125 C-1.31777344 6.84945313 -1.69804687 7.57390625 -2.08984375 8.3203125 C-2.39019531 8.87460937 -2.69054687 9.42890625 -3 10 C-3.66 10 -4.32 10 -5 10 C-3.66511872 6.40608886 -2.03977277 3.24509304 0 0 Z " fill="#FDDFCD" transform="translate(326,474)"/>
<path d="M0 0 C1.65 0 3.3 0 5 0 C5 1.65 5 3.3 5 5 C3.0625 4.1875 3.0625 4.1875 1 3 C0.67 2.01 0.34 1.02 0 0 Z " fill="#FEEADA" transform="translate(383,637)"/>
<path d="M0 0 C0.99 0.33 1.98 0.66 3 1 C-0.465 3.97 -0.465 3.97 -4 7 C-4 6.01 -4 5.02 -4 4 C-3.34 4 -2.68 4 -2 4 C-1.34 2.68 -0.68 1.36 0 0 Z " fill="#FFEEE0" transform="translate(777,584)"/>
<path d="M0 0 C0.33 0.66 0.66 1.32 1 2 C-0.59617578 5.83082186 -1.49984971 7.66656647 -5 10 C-3.66511872 6.40608886 -2.03977277 3.24509304 0 0 Z " fill="#FDDFCC" transform="translate(716,501)"/>
<path d="M0 0 C-6.75 4 -6.75 4 -9 4 C-9 3.34 -9 2.68 -9 2 C-8.34 2 -7.68 2 -7 2 C-7 1.34 -7 0.68 -7 0 C-3.98968256 -0.93423645 -3.13349732 -1.04449911 0 0 Z " fill="#FEE8D8" transform="translate(547,479)"/>
<path d="M0 0 C2.95183101 2.95183101 3.08663988 5.95511947 4 10 C3.01 9.67 2.02 9.34 1 9 C0.67 6.03 0.34 3.06 0 0 Z " fill="#E05E31" transform="translate(186,337)"/>
</svg>
